<?xml version="1.0" encoding="UTF-8" standalone="no"?>
<svg
   xmlns:dc="http://purl.org/dc/elements/1.1/"
   xmlns:cc="http://creativecommons.org/ns#"
   xmlns:rdf="http://www.w3.org/1999/02/22-rdf-syntax-ns#"
   xmlns:svg="http://www.w3.org/2000/svg"
   xmlns="http://www.w3.org/2000/svg"
   viewBox="0 0 1800 300"
   height="300"
   width="1800"
   xml:space="preserve"
   id="svg2"
   version="1.1"><metadata
     id="metadata8"><rdf:RDF><cc:Work
         rdf:about=""><dc:format>image/svg+xml</dc:format><dc:type
           rdf:resource="http://purl.org/dc/dcmitype/StillImage" /></cc:Work></rdf:RDF></metadata><defs
     id="defs6"><clipPath
       id="clipPath14"
       clipPathUnits="userSpaceOnUse"><path
         id="path12"
         d="m 0,8.04 h 1350 v 225 H 0 Z" /></clipPath><clipPath
       id="clipPath26"
       clipPathUnits="userSpaceOnUse"><path
         style="clip-rule:evenodd"
         id="path24"
         d="M 0,0 H 5625 V 937.5 H 0 Z" /></clipPath><clipPath
       id="clipPath38"
       clipPathUnits="userSpaceOnUse"><path
         style="clip-rule:evenodd"
         id="path36"
         d="M 0,0 H 5625 V 937.5 H 0 Z" /></clipPath><clipPath
       id="clipPath44"
       clipPathUnits="userSpaceOnUse"><path
         id="path42"
         d="M 0,8 H 1350 V 234 H 0 Z" /></clipPath><radialGradient
       id="radialGradient50"
       spreadMethod="pad"
       gradientTransform="matrix(0.75,0,0,-0.75,0,233.03999)"
       gradientUnits="userSpaceOnUse"
       r="912.414"
       cy="150"
       cx="900"
       fy="150"
       fx="900"><stop
         id="stop46"
         offset="0"
         style="stop-opacity:0.68599985;stop-color:#ffffff" /><stop
         id="stop48"
         offset="1"
         style="stop-opacity:0.77599756;stop-color:#ffffff" /></radialGradient><radialGradient
       id="radialGradient56"
       spreadMethod="pad"
       gradientTransform="matrix(0.75,0,0,-0.75,0,233.03999)"
       gradientUnits="userSpaceOnUse"
       r="912.414"
       cy="150"
       cx="900"
       fy="150"
       fx="900"><stop
         id="stop52"
         offset="0"
         style="stop-opacity:1;stop-color:#6dccc3" /><stop
         id="stop54"
         offset="1"
         style="stop-opacity:1;stop-color:#006984" /></radialGradient><pattern
       id="pattern73"
       height="226"
       width="1350"
       y="0"
       x="0"
       patternUnits="userSpaceOnUse"
       patternTransform="matrix(4.1666668,0,0,-4.1666668,0,971)"><defs
         id="defs65"><mask
           id="_mask0"
           height="1"
           width="1"
           y="0"
           x="0"
           maskUnits="userSpaceOnUse"><g
             id="g62"><g
               id="g60"
               clip-path="url(#clipPath44)"><path
                 id="path58"
                 style="fill:url(#radialGradient50);fill-opacity:1;fill-rule:evenodd;stroke:none"
                 d="m 0,8 1350,0 0,226 L 0,234 0,8 Z" /></g></g></mask></defs><g
         id="g67" /><g
         id="g71"
         mask="url(#_mask0)"><path
           id="path69"
           style="fill:url(#radialGradient56);fill-opacity:1;fill-rule:evenodd;stroke:none"
           d="m 0,8 1350,0 0,226 L 0,234 0,8 Z" /></g></pattern><clipPath
       id="clipPath83"
       clipPathUnits="userSpaceOnUse"><path
         style="clip-rule:evenodd"
         id="path81"
         d="M 0,0 H 5625 V 937.5 H 0 Z" /></clipPath><clipPath
       id="clipPath97"
       clipPathUnits="userSpaceOnUse"><path
         style="clip-rule:evenodd"
         id="path95"
         d="M 0,60.512589 H 759.375 V 435.51259 H 0 Z" /></clipPath><clipPath
       id="clipPath109"
       clipPathUnits="userSpaceOnUse"><path
         style="clip-rule:evenodd"
         id="path107"
         d="M 735.62714,0 H 1516.8772 V 275 H 735.62714 Z" /></clipPath><clipPath
       id="clipPath121"
       clipPathUnits="userSpaceOnUse"><path
         style="clip-rule:evenodd"
         id="path119"
         d="m 4192.9141,641.1709 h 781.25 v 275 h -781.25 z" /></clipPath><clipPath
       id="clipPath133"
       clipPathUnits="userSpaceOnUse"><path
         style="clip-rule:evenodd"
         id="path131"
         d="M 4949.9907,481.25 H 5625 v 375 h -675.0093 z" /></clipPath><clipPath
       id="clipPath145"
       clipPathUnits="userSpaceOnUse"><path
         style="clip-rule:evenodd"
         id="path143"
         d="M 0,0 H 5625 V 937.5 H 0 Z" /></clipPath><clipPath
       id="clipPath157"
       clipPathUnits="userSpaceOnUse"><path
         id="path155"
         d="M 0,0 H 5625 V 937.5 H 0 Z" /></clipPath><clipPath
       id="clipPath163"
       clipPathUnits="userSpaceOnUse"><path
         id="path161"
         d="M 0,0 H 5625 V 937.5 H 0 Z" /></clipPath><clipPath
       id="clipPath169"
       clipPathUnits="userSpaceOnUse"><path
         id="path167"
         d="m 3433.0083,258.60794 h 105.8606 V 364.4686 h -105.8606 z" /></clipPath><clipPath
       id="clipPath175"
       clipPathUnits="userSpaceOnUse"><path
         id="path173"
         d="m 3505.7876,258.60794 h -39.6978 v 33.08145 h -33.0815 v 39.69776 h 33.0815 v 33.08145 h 39.6978 v -33.08145 h 33.0813 v -39.69776 h -33.0813 z" /></clipPath><clipPath
       id="clipPath187"
       clipPathUnits="userSpaceOnUse"><path
         style="clip-rule:evenodd"
         id="path185"
         d="M 0,0 H 5625 V 937.5 H 0 Z" /></clipPath></defs><g
     clip-path="url(#clipPath14)"
     transform="matrix(1.3333333,0,0,-1.3333333,0,310.72)"
     id="g10"><g
       id="g16"><g
         transform="matrix(0.23999999,0,0,-0.23999999,0,233.03999)"
         id="g18"><g
           id="g20"><g
             clip-path="url(#clipPath26)"
             id="g22"><g
               transform="scale(3.125)"
               id="g28"><path
                 id="path30"
                 style="fill:#ffffff;fill-opacity:1;fill-rule:nonzero;stroke:none"
                 d="M 0,0 H 1800 V 300 H 0 Z" /></g></g></g><g
           id="g32"><g
             clip-path="url(#clipPath38)"
             id="g34"><g
               transform="scale(3.125)"
               id="g40"><path
                 id="path75"
                 style="fill:url(#pattern73);fill-opacity:1;fill-rule:nonzero;stroke:none"
                 d="M 0,0 H 1800 V 300 H 0 Z" /></g></g></g><g
           id="g77"><g
             clip-path="url(#clipPath83)"
             id="g79"><g
               transform="matrix(3.125,0,0,3.125,588.28485,194.39203)"
               id="g85"><text
                 id="text89"
                 style="font-variant:normal;font-weight:bold;font-size:110.66000366px;font-family:CanvaSans;-inkscape-font-specification:CanvaSans-Bold;writing-mode:lr-tb;fill:#ffffff;fill-opacity:1;fill-rule:nonzero;stroke:none"
                 transform="translate(368.75,119)"><tspan
                   id="tspan87"
                   y="0"
                   x="0 32.148666 96.121811 160.09496 229.03899 330.99619 363.14484 432.95337 495.79187 542.09674 574.24542 643.51367">ıLLuMınatıon</tspan></text>
</g></g></g><g
           id="g91"><g
             clip-path="url(#clipPath97)"
             id="g93"><g
               transform="matrix(0.42449626,0,0,0.42449626,0.27153882,60.512589)"
               id="g99"><path
                 id="path101"
                 style="fill:#ffffff;fill-opacity:1;fill-rule:nonzero;stroke:none"
                 d="M 1576.2,372.60001 1573.3001,384.5 1544.9,502.5 1493.5,190.2 1478.1,96.800003 1466.9,190.60001 1404.4,715.79999 1307.7,50.599998 1300.3001,0 l -8.5,50.400002 L 1231,412.70001 1156.6,413 h -4.5 l -1.4,4.29999 -32.8,102.90002 -27.2,-138 -0.8999,-4.20001 -4.1001,0.10001 -69.6,0.19998 h -3.2 l -1.2,2.90002 -52.40001,123.59998 -19.5,-86.4 -0.59998,-3 h -3.10003 L 894.70001,415.60001 880,380.5 l -0.90002,-2.10001 h -2.29999 L 0,381.79999 l 874.5,3.5 14.40002,35.30002 0.89997,2.19998 h 2.5 L 933,423 l 20.90002,96.40002 2.79999,12.79999 5.20001,-12 57.29998,-132.30002 62.3,0.30002 29.5,155.89997 4.2,21.70001 6.9,-21 39,-119.29999 75.4,0.29999 h 5.5 l 1,-5.5 55.8001,-316.79999 95.7999,697.59998 11.3,82.30004 10.5,-82.5 65.2,-513.10003 45.8,292.40002 11.4001,72.89997 L 1556.7,581.40002 1600.8001,404 1784.5,404.79999 v -33 L 1588.6,372.5 Z" /></g></g></g><g
           id="g103"><g
             clip-path="url(#clipPath109)"
             id="g105"><g
               transform="matrix(0.15230721,0,0,0.15230721,618.76184,-370.63272)"
               id="g111"><path
                 id="path113"
                 style="fill:#ffffff;fill-opacity:1;fill-rule:evenodd;stroke:none"
                 d="m 1351.2,2992.97 h 406.38 79.9799 l 170.2801,270.1999 h 1869.0199 l 128.1599,-203.3701 h -3.8101 -971.8401 l -170.28,-270.1999 h -450.3501 c -13.96,33.76 -47.1999,57.51 -86,57.51 -51.3799,0 -93.03,-41.6499 -93.03,-93.0301 0,-51.3798 41.6499,-93.03 93.03,-93.03 40.0801,0 74.24,25.3501 87.3301,60.8899 h 406.3801 79.98 l 170.28,270.1999 h 980.95 l 144.4399,-229.2099 h 79.9702 389 c 13.7403,-34.2 47.2202,-58.3501 86.3399,-58.3501 51.3799,0 93.0298,41.6499 93.0298,93.03 0,51.3799 -41.6499,93.03 -93.0298,93.03 -39.7701,0 -73.7002,-24.9599 -87.0098,-60.06 h -430.9502 l -14.9302,23.6799 -86.8901,137.8699 h 808.0898 l 315.2398,-500.23 h 79.9702 389 c 13.7402,-34.1999 47.2202,-58.3401 86.3398,-58.3401 51.3799,0 93.0298,41.6499 93.0298,93.0301 0,51.3798 -41.6499,93.03 -93.0298,93.03 -39.77,0 -73.7002,-24.96 -87.0097,-60.0601 h -430.9502 l -14.9302,23.68 -300.3198,476.56 H 4084.999 l -170.8,271.02 h -971.8401 -971.8401 l -170.28,-270.1999 h -450.35 c -13.96,33.76 -47.2,57.51 -86,57.51 -51.38,0 -93.03,-41.6499 -93.03,-93.03 0,-51.3799 41.65,-93.0301 93.03,-93.0301 40.08,0 74.24,25.3501 87.33,60.8899 l -0.019,0.011 z m -403.50005,951.74 h 406.38005 79.9799 l 170.2801,-270.2 h 1251.15 l -59.6699,94.6699 H 2345.48 c -13.96,-33.75 -47.2,-57.51 -86,-57.51 -51.3799,0 -93.03,41.6499 -93.03,93.0301 0,51.3798 41.6499,93.03 93.03,93.03 40.0801,0 74.24,-25.3501 87.3301,-60.8899 h 406.3798 79.98 L 2935.47,3674.51 h 537.9001 l 315.24,500.2302 h 79.97 388.9902 c 13.75,34.2002 47.2202,58.3501 86.3399,58.3501 51.3798,0 93.0297,-41.6499 93.0297,-93.0298 0,-51.3798 -41.6499,-93.03 -93.0297,-93.03 -39.7701,0 -73.7002,24.96 -87.0098,60.0598 h -430.96 l -14.9199,-23.6799 -300.3201,-476.5601 h -532.5998 l 25.3401,-40.2099 h 1869.0202 l 315.2403,500.23 h 79.9702 388.9897 c 13.75,34.1999 47.2202,58.3498 86.3399,58.3498 51.3799,0 93.0298,-41.6499 93.0298,-93.03 0,-51.3799 -41.6499,-93.03 -93.0298,-93.03 -39.77,0 -73.7002,24.9599 -87.0098,60.06 h -430.9599 l -14.9302,-23.6799 -300.3198,-476.5601 h -971.8501 -971.8401 l -67.98,107.8701 h -359.28 -971.8401 l -170.2801,270.2 H 946.36096 c -13.96002,-33.75 -47.20001,-57.51 -86,-57.51 -51.38,0 -93.03003,41.6499 -93.03003,93.03 0,51.3799 41.65003,93.03 93.03003,93.03 40.08002,0 74.23999,-25.3501 87.33002,-60.8899 l 0.009,-4e-4 z" /></g></g></g><g
           id="g115"><g
             clip-path="url(#clipPath121)"
             id="g117"><g
               transform="matrix(-0.15230721,0,0,-0.15230721,5091.0293,1286.8036)"
               id="g123"><path
                 id="path125"
                 style="fill:#ffffff;fill-opacity:1;fill-rule:evenodd;stroke:none"
                 d="m 1351.2,2992.97 h 406.38 79.9799 l 170.2801,270.1999 h 1869.0199 l 128.1599,-203.3701 h -3.8101 -971.8401 l -170.28,-270.1999 h -450.3501 c -13.96,33.76 -47.1999,57.51 -86,57.51 -51.3799,0 -93.03,-41.6499 -93.03,-93.0301 0,-51.3798 41.6499,-93.03 93.03,-93.03 40.0801,0 74.24,25.3501 87.3301,60.8899 h 406.3801 79.98 l 170.28,270.1999 h 980.95 l 144.4399,-229.2099 h 79.9702 389 c 13.7403,-34.2 47.2202,-58.3501 86.3399,-58.3501 51.3799,0 93.0298,41.6499 93.0298,93.03 0,51.3799 -41.6499,93.03 -93.0298,93.03 -39.7701,0 -73.7002,-24.9599 -87.0098,-60.06 h -430.9502 l -14.9302,23.6799 -86.8901,137.8699 h 808.0898 l 315.2398,-500.23 h 79.9702 389 c 13.7402,-34.1999 47.2202,-58.3401 86.3398,-58.3401 51.3799,0 93.0298,41.6499 93.0298,93.0301 0,51.3798 -41.6499,93.03 -93.0298,93.03 -39.77,0 -73.7002,-24.96 -87.0097,-60.0601 h -430.9502 l -14.9302,23.68 -300.3198,476.56 H 4084.999 l -170.8,271.02 h -971.8401 -971.8401 l -170.28,-270.1999 h -450.35 c -13.96,33.76 -47.2,57.51 -86,57.51 -51.38,0 -93.03,-41.6499 -93.03,-93.03 0,-51.3799 41.65,-93.0301 93.03,-93.0301 40.08,0 74.24,25.3501 87.33,60.8899 l -0.019,0.011 z m -403.50005,951.74 h 406.38005 79.9799 l 170.2801,-270.2 h 1251.15 l -59.6699,94.6699 H 2345.48 c -13.96,-33.75 -47.2,-57.51 -86,-57.51 -51.3799,0 -93.03,41.6499 -93.03,93.0301 0,51.3798 41.6499,93.03 93.03,93.03 40.0801,0 74.24,-25.3501 87.3301,-60.8899 h 406.3798 79.98 L 2935.47,3674.51 h 537.9001 l 315.24,500.2302 h 79.97 388.9902 c 13.75,34.2002 47.2202,58.3501 86.3399,58.3501 51.3798,0 93.0297,-41.6499 93.0297,-93.0298 0,-51.3798 -41.6499,-93.03 -93.0297,-93.03 -39.7701,0 -73.7002,24.96 -87.0098,60.0598 h -430.96 l -14.9199,-23.6799 -300.3201,-476.5601 h -532.5998 l 25.3401,-40.2099 h 1869.0202 l 315.2403,500.23 h 79.9702 388.9897 c 13.75,34.1999 47.2202,58.3498 86.3399,58.3498 51.3799,0 93.0298,-41.6499 93.0298,-93.03 0,-51.3799 -41.6499,-93.03 -93.0298,-93.03 -39.77,0 -73.7002,24.9599 -87.0098,60.06 h -430.9599 l -14.9302,-23.6799 -300.3198,-476.5601 h -971.8501 -971.8401 l -67.98,107.8701 h -359.28 -971.8401 l -170.2801,270.2 H 946.36096 c -13.96002,-33.75 -47.20001,-57.51 -86,-57.51 -51.38,0 -93.03003,41.6499 -93.03003,93.03 0,51.3799 41.65003,93.03 93.03003,93.03 40.08002,0 74.23999,-25.3501 87.33002,-60.8899 l 0.009,-4e-4 z" /></g></g></g><g
           id="g127"><g
             clip-path="url(#clipPath133)"
             id="g129"><g
               transform="matrix(-0.42449626,0,0,-0.42449626,5709.0942,856.25)"
               id="g135"><path
                 id="path137"
                 style="fill:#ffffff;fill-opacity:1;fill-rule:nonzero;stroke:none"
                 d="M 1576.2,372.60001 1573.3001,384.5 1544.9,502.5 1493.5,190.2 1478.1,96.800003 1466.9,190.60001 1404.4,715.79999 1307.7,50.599998 1300.3001,0 l -8.5,50.400002 L 1231,412.70001 1156.6,413 h -4.5 l -1.4,4.29999 -32.8,102.90002 -27.2,-138 -0.8999,-4.20001 -4.1001,0.10001 -69.6,0.19998 h -3.2 l -1.2,2.90002 -52.40001,123.59998 -19.5,-86.4 -0.59998,-3 h -3.10003 L 894.70001,415.60001 880,380.5 l -0.90002,-2.10001 h -2.29999 L 0,381.79999 l 874.5,3.5 14.40002,35.30002 0.89997,2.19998 h 2.5 L 933,423 l 20.90002,96.40002 2.79999,12.79999 5.20001,-12 57.29998,-132.30002 62.3,0.30002 29.5,155.89997 4.2,21.70001 6.9,-21 39,-119.29999 75.4,0.29999 h 5.5 l 1,-5.5 55.8001,-316.79999 95.7999,697.59998 11.3,82.30004 10.5,-82.5 65.2,-513.10003 45.8,292.40002 11.4001,72.89997 L 1556.7,581.40002 1600.8001,404 1784.5,404.79999 v -33 L 1588.6,372.5 Z" /></g></g></g><g
           id="g139"><g
             clip-path="url(#clipPath145)"
             id="g141"><g
               transform="matrix(-2.2097087,-2.2097087,2.2097087,-2.2097087,3495.908,354.96341)"
               id="g147"><path
                 id="path149"
                 style="fill:none;stroke:#ffffff;stroke-width:1;stroke-linecap:butt;stroke-linejoin:miter;stroke-miterlimit:10;stroke-dasharray:none;stroke-opacity:1"
                 d="M 0,2 H 11.991373" /></g></g></g><g
           id="g151"><g
             clip-path="url(#clipPath157)"
             id="g153"><g
               clip-path="url(#clipPath163)"
               id="g159"><g
                 clip-path="url(#clipPath169)"
                 id="g165"><g
                   clip-path="url(#clipPath175)"
                   id="g171"><g
                     transform="matrix(0.41351816,0,0,0.41351816,3433.0083,258.60794)"
                     id="g177"><path
                       id="path179"
                       style="fill:#ffffff;fill-opacity:1;fill-rule:nonzero;stroke:none"
                       d="M 0,0 H 256 V 256 H 0 Z" /></g></g></g></g></g></g><g
           id="g181"><g
             clip-path="url(#clipPath187)"
             id="g183"><g
               transform="matrix(3.125,0,0,3.125,1903.0575,637.04974)"
               id="g189"><text
                 id="text193"
                 style="font-variant:normal;font-weight:normal;font-size:15.98999977px;font-family:CanvaSans;-inkscape-font-specification:CanvaSans-Regular;writing-mode:lr-tb;fill:#ffffff;fill-opacity:1;fill-rule:nonzero;stroke:none"
                 transform="translate(82.71875,17)"><tspan
                   id="tspan191"
                   y="0"
                   x="0 10.4039">Pr</tspan></text>
<path
                 id="path195"
                 style="fill:#ffffff;fill-opacity:1;fill-rule:nonzero;stroke:none"
                 d="m 99.78125,18 h 4.64063 v 1 h -4.64063 z" /><text
                 id="text199"
                 style="font-variant:normal;font-weight:bold;font-size:15.98999977px;font-family:CanvaSans;-inkscape-font-specification:CanvaSans-Bold;writing-mode:lr-tb;fill:#ffffff;fill-opacity:1;fill-rule:nonzero;stroke:none"
                 transform="translate(99.78125,17)"><tspan
                   id="tspan197"
                   y="0"
                   x="0">i</tspan></text>
<text
                 id="text203"
                 style="font-variant:normal;font-weight:normal;font-size:15.98999977px;font-family:CanvaSans;-inkscape-font-specification:CanvaSans-Regular;writing-mode:lr-tb;fill:#ffffff;fill-opacity:1;fill-rule:nonzero;stroke:none"
                 transform="translate(104.42188,17)"><tspan
                   id="tspan201"
                   y="0"
                   x="0 9.1239014 18.029266 26.903412 35.980484 42.037064 52.440964 59.090714 68.269241 76.230209 85.408737 92.058487 101.18239 105.45166 115.36385 124.18335 128.10139 139.86334 147.82431 156.72968 165.54918 174.72771 178.64575 188.52672 194.66135">vacy-Preserving Usage of </tspan></text>
<path
                 id="path205"
                 style="fill:#ffffff;fill-opacity:1;fill-rule:nonzero;stroke:none"
                 d="m 303.01563,18 h 9.25 v 1 h -9.25 z" /><text
                 id="text209"
                 style="font-variant:normal;font-weight:bold;font-size:15.98999977px;font-family:CanvaSans;-inkscape-font-specification:CanvaSans-Bold;writing-mode:lr-tb;fill:#ffffff;fill-opacity:1;fill-rule:nonzero;stroke:none"
                 transform="translate(303.01563,17)"><tspan
                   id="tspan207"
                   y="0"
                   x="0">L</tspan></text>
<text
                 id="text213"
                 style="font-variant:normal;font-weight:normal;font-size:15.98999977px;font-family:CanvaSans;-inkscape-font-specification:CanvaSans-Regular;writing-mode:lr-tb;fill:#ffffff;fill-opacity:1;fill-rule:nonzero;stroke:none"
                 transform="translate(312.26563,17)"><tspan
                   id="tspan211"
                   y="0"
                   x="0 8.905365 15.555115 24.374619 33.553146">arge </tspan></text>
<path
                 id="path215"
                 style="fill:#ffffff;fill-opacity:1;fill-rule:nonzero;stroke:none"
                 d="M 349.75,18 H 359 v 1 h -9.25 z" /><text
                 id="text219"
                 style="font-variant:normal;font-weight:bold;font-size:15.98999977px;font-family:CanvaSans;-inkscape-font-specification:CanvaSans-Bold;writing-mode:lr-tb;fill:#ffffff;fill-opacity:1;fill-rule:nonzero;stroke:none"
                 transform="translate(349.75,17)"><tspan
                   id="tspan217"
                   y="0"
                   x="0">L</tspan></text>
<text
                 id="text223"
                 style="font-variant:normal;font-weight:normal;font-size:15.98999977px;font-family:CanvaSans;-inkscape-font-specification:CanvaSans-Regular;writing-mode:lr-tb;fill:#ffffff;fill-opacity:1;fill-rule:nonzero;stroke:none"
                 transform="translate(359,17)"><tspan
                   id="tspan221"
                   y="0"
                   x="0 8.905365 18.817551">ang</tspan></text>
<path
                 id="path225"
                 style="fill:#ffffff;fill-opacity:1;fill-rule:nonzero;stroke:none"
                 d="m 386.64063,18 h 9.96875 v 1 h -9.96875 z" /><text
                 id="text229"
                 style="font-variant:normal;font-weight:bold;font-size:15.98999977px;font-family:CanvaSans;-inkscape-font-specification:CanvaSans-Bold;writing-mode:lr-tb;fill:#ffffff;fill-opacity:1;fill-rule:nonzero;stroke:none"
                 transform="translate(386.64063,17)"><tspan
                   id="tspan227"
                   y="0"
                   x="0">u</tspan></text>
<text
                 id="text233"
                 style="font-variant:normal;font-weight:normal;font-size:15.98999977px;font-family:CanvaSans;-inkscape-font-specification:CanvaSans-Regular;writing-mode:lr-tb;fill:#ffffff;fill-opacity:1;fill-rule:nonzero;stroke:none"
                 transform="translate(396.60938,17)"><tspan
                   id="tspan231"
                   y="0"
                   x="0 8.905365 17.724869 26.903397">age </tspan></text>
<path
                 id="path235"
                 style="fill:#ffffff;fill-opacity:1;fill-rule:nonzero;stroke:none"
                 d="m 427.4375,18 h 14.73437 v 1 H 427.4375 Z" /><text
                 id="text239"
                 style="font-variant:normal;font-weight:bold;font-size:15.98999977px;font-family:CanvaSans;-inkscape-font-specification:CanvaSans-Bold;writing-mode:lr-tb;fill:#ffffff;fill-opacity:1;fill-rule:nonzero;stroke:none"
                 transform="translate(427.4375,17)"><tspan
                   id="tspan237"
                   y="0"
                   x="0">M</tspan></text>
<text
                 id="text243"
                 style="font-variant:normal;font-weight:normal;font-size:15.98999977px;font-family:CanvaSans;-inkscape-font-specification:CanvaSans-Regular;writing-mode:lr-tb;fill:#ffffff;fill-opacity:1;fill-rule:nonzero;stroke:none"
                 transform="translate(442.17188,17)"><tspan
                   id="tspan241"
                   y="0"
                   x="0 9.8809662 20.159988 29.338516 34.021439">odels</tspan></text>
<path
                 id="path245"
                 style="fill:#ffffff;fill-opacity:1;fill-rule:nonzero;stroke:none"
                 d="m 180.79688,40 h 14.73437 v 1 h -14.73437 z" /><text
                 id="text249"
                 style="font-variant:normal;font-weight:bold;font-size:15.98999977px;font-family:CanvaSans;-inkscape-font-specification:CanvaSans-Bold;writing-mode:lr-tb;fill:#ffffff;fill-opacity:1;fill-rule:nonzero;stroke:none"
                 transform="translate(180.79688,39)"><tspan
                   id="tspan247"
                   y="0"
                   x="0 4.6360931">in</tspan></text>
<text
                 id="text253"
                 style="font-variant:normal;font-weight:normal;font-size:15.98999977px;font-family:CanvaSans;-inkscape-font-specification:CanvaSans-Regular;writing-mode:lr-tb;fill:#ffffff;fill-opacity:1;fill-rule:nonzero;stroke:none"
                 transform="translate(199.44929,39)"><tspan
                   id="tspan251"
                   y="0"
                   x="0 12.06633 21.244858 30.150223 34.833145 41.389236 51.301422 60.175568 69.080933 75.730682 84.90921">Healthcare </tspan></text>
<path
                 id="path255"
                 style="fill:#ffffff;fill-opacity:1;fill-rule:nonzero;stroke:none"
                 d="m 288.28125,40 h 11.125 v 1 h -11.125 z" /><text
                 id="text259"
                 style="font-variant:normal;font-weight:bold;font-size:15.98999977px;font-family:CanvaSans;-inkscape-font-specification:CanvaSans-Bold;writing-mode:lr-tb;fill:#ffffff;fill-opacity:1;fill-rule:nonzero;stroke:none"
                 transform="translate(288.28125,39)"><tspan
                   id="tspan257"
                   y="0"
                   x="0">A</tspan></text>
<text
                 id="text263"
                 style="font-variant:normal;font-weight:normal;font-size:15.98999977px;font-family:CanvaSans;-inkscape-font-specification:CanvaSans-Regular;writing-mode:lr-tb;fill:#ffffff;fill-opacity:1;fill-rule:nonzero;stroke:none"
                 transform="translate(299.40625,39)"><tspan
                   id="tspan261"
                   y="0"
                   x="0 10.27121 20.542419 25.225342 29.494614 38.368759">pplica</tspan></text>
<path
                 id="path265"
                 style="fill:#ffffff;fill-opacity:1;fill-rule:nonzero;stroke:none"
                 d="m 346.6875,40 h 31.42187 v 1 H 346.6875 Z" /><text
                 id="text269"
                 style="font-variant:normal;font-weight:bold;font-size:15.98999977px;font-family:CanvaSans;-inkscape-font-specification:CanvaSans-Bold;writing-mode:lr-tb;fill:#ffffff;fill-opacity:1;fill-rule:nonzero;stroke:none"
                 transform="translate(346.6875,39)"><tspan
                   id="tspan267"
                   y="0"
                   x="0 6.6887817 11.324875 21.330719">tion</tspan></text>
<text
                 id="text273"
                 style="font-variant:normal;font-weight:normal;font-size:15.98999977px;font-family:CanvaSans;-inkscape-font-specification:CanvaSans-Regular;writing-mode:lr-tb;fill:#ffffff;fill-opacity:1;fill-rule:nonzero;stroke:none"
                 transform="translate(378.10938,39)"><tspan
                   id="tspan271"
                   y="0"
                   x="0">s</tspan></text>
</g></g></g></g><path
         id="path275"
         style="fill:#000000;fill-opacity:0;fill-rule:nonzero;stroke:none"
         d="M 176.5505,167.2417 H 364.14877 V 233.04 H 176.5505 Z" /><path
         id="path277"
         style="fill:#000000;fill-opacity:0;fill-rule:nonzero;stroke:none"
         d="m 0,128.51698 h 181.93658 v 90 H 0 Z" /><path
         id="path279"
         style="fill:#000000;fill-opacity:0;fill-rule:nonzero;stroke:none"
         d="m 823.922,145.56754 h 25.40655 v 25.40655 H 823.922 Z" /><path
         id="path281"
         style="fill:#000000;fill-opacity:0;fill-rule:nonzero;stroke:none"
         d="m 832.663,147.84692 h 8.48071 v 8.48071 H 832.663 Z" /><path
         id="path283"
         style="fill:#000000;fill-opacity:0;fill-rule:nonzero;stroke:none"
         d="m 1188.3142,27.539999 h 181.9366 V 117.54 h -181.9366 z" /><path
         id="path285"
         style="fill:#000000;fill-opacity:0;fill-rule:nonzero;stroke:none"
         d="m 1006.2055,13.149765 h 187.5983 v 65.7983 h -187.5983 z" /></g></g></svg>